<svg width="1500" height="1500" viewBox="0 0 1500 1500" fill="none" xmlns="http://www.w3.org/2000/svg">
<mask id="mask0_2_5" style="mask-type:alpha" maskUnits="userSpaceOnUse" x="249" y="175" width="1001" height="1149">
<path d="M754.952 683.963C843.052 683.19 951.388 707.242 1044.34 780.903C1127.12 846.498 1177.47 933.679 1209.37 1032.8C1229.07 1094.01 1240.63 1156.94 1248.87 1220.54C1253.29 1254.72 1245.29 1284.81 1214.97 1304.65C1189.15 1321.54 1161.65 1322.58 1134.2 1307.66C1106.59 1292.6 1095.71 1267.25 1092.45 1237.55C1087.36 1190.5 1078.33 1143.96 1065.47 1098.41C1052.06 1051.2 1032.82 1006.69 1005.03 965.903C965.518 907.92 911.89 869.163 843.945 853.911C741.582 830.993 640.125 834.792 541.987 875.776C507.422 890.202 475.802 909.88 449.462 936.585C411.977 974.609 397.673 1020.3 410.884 1072.78C426.733 1135.7 482.347 1172.26 547.066 1167.57C638.845 1160.9 716.641 1124.78 784.346 1063.79C812.606 1038.32 848.691 1035.79 879.084 1054.96C908.411 1073.47 921.555 1108.15 912.557 1142.5C908.717 1157.17 900.253 1168.75 889.468 1178.86C778.56 1282.85 647.737 1333.36 495.384 1321.7C376.505 1312.6 269.809 1207.41 253.439 1086.44C236.99 965.023 279.807 867.95 375.558 793.609C478.948 713.388 598.454 683.723 754.952 683.963Z" fill="#011627"/>
<path d="M724.066 176C950.534 174.307 1118.43 273.993 1230.62 469.019C1253.61 509.016 1239.14 556.279 1201.38 576.758C1161.66 598.303 1117.12 585.157 1093.18 543.053C1039.51 448.634 963.252 381.318 858.969 348.614C692.34 296.325 510.194 370.146 416.002 526.988C411.137 535.094 406.738 543.507 401.486 551.359C378.104 586.33 334.288 596.69 297.722 576.291C280.674 566.82 267.875 551.207 261.931 532.63C255.987 514.053 257.346 493.909 265.73 476.298C287.058 430.435 317.038 389.945 351.39 353.094C440.277 257.714 548.959 198.892 678.449 180C693.513 177.747 708.843 177.333 724.066 176Z" fill="#011627"/>
</mask>
<g mask="url(#mask0_2_5)">
<rect width="1500" height="1500" fill="#6598C1"/>
<g opacity="0.4" filter="url(#filter0_f_2_5)">
<path d="M1058.13 1434.94L646.546 1313.64L474.597 1161L525.705 758.496L863.228 712.308L860.134 424.928L1249.31 296.856L1500 370.74L1341.39 998.893L1096.51 1077.24L1058.13 1434.94Z" fill="#4D5BCE"/>
</g>
<g opacity="0.4" filter="url(#filter1_f_2_5)">
<path d="M961.006 277.758L992.78 795.612L926.93 1043.15L598.948 1106.58L459.856 726.469L237.79 817.994L19.3532 402.599L-9.16038e-05 87.1786L535.978 80.2889L671.686 342.354L961.006 277.758Z" fill="#43D9AD"/>
</g>
</g>
<mask id="mask1_2_5" style="mask-type:alpha" maskUnits="userSpaceOnUse" x="249" y="175" width="1001" height="1149">
<path d="M754.952 683.963C843.052 683.19 951.388 707.242 1044.34 780.903C1127.12 846.498 1177.47 933.679 1209.37 1032.8C1229.07 1094.01 1240.63 1156.94 1248.87 1220.54C1253.29 1254.72 1245.29 1284.81 1214.97 1304.65C1189.15 1321.54 1161.65 1322.58 1134.2 1307.66C1106.59 1292.6 1095.71 1267.25 1092.45 1237.55C1087.36 1190.5 1078.33 1143.96 1065.47 1098.41C1052.06 1051.2 1032.82 1006.69 1005.03 965.903C965.518 907.92 911.89 869.163 843.945 853.911C741.582 830.993 640.125 834.792 541.987 875.776C507.422 890.202 475.802 909.88 449.462 936.585C411.977 974.609 397.673 1020.3 410.884 1072.78C426.733 1135.7 482.347 1172.26 547.066 1167.57C638.845 1160.9 716.641 1124.78 784.346 1063.79C812.606 1038.32 848.691 1035.79 879.084 1054.96C908.411 1073.47 921.555 1108.15 912.557 1142.5C908.717 1157.17 900.253 1168.75 889.468 1178.86C778.56 1282.85 647.737 1333.36 495.384 1321.7C376.505 1312.6 269.809 1207.41 253.439 1086.44C236.99 965.023 279.807 867.95 375.558 793.609C478.948 713.388 598.454 683.723 754.952 683.963Z" fill="#011627"/>
<path d="M724.066 176C950.534 174.307 1118.43 273.993 1230.62 469.019C1253.61 509.016 1239.14 556.279 1201.38 576.758C1161.66 598.303 1117.12 585.157 1093.18 543.053C1039.51 448.634 963.252 381.318 858.969 348.614C692.34 296.325 510.194 370.146 416.002 526.988C411.137 535.094 406.738 543.507 401.486 551.359C378.104 586.33 334.288 596.69 297.722 576.291C280.674 566.82 267.875 551.207 261.931 532.63C255.987 514.053 257.346 493.909 265.73 476.298C287.058 430.435 317.038 389.945 351.39 353.094C440.277 257.714 548.959 198.892 678.449 180C693.513 177.747 708.843 177.333 724.066 176Z" fill="#011627"/>
</mask>
<g mask="url(#mask1_2_5)">
<rect width="1500" height="1500" fill="#6598C1"/>
<g opacity="0.4" filter="url(#filter2_f_2_5)">
<path d="M1058.13 1434.94L646.546 1313.64L474.597 1161L525.705 758.496L863.228 712.308L860.134 424.928L1249.31 296.856L1500 370.74L1341.39 998.893L1096.51 1077.24L1058.13 1434.94Z" fill="#4D5BCE"/>
</g>
<g opacity="0.4" filter="url(#filter3_f_2_5)">
<path d="M961.006 277.758L992.78 795.612L926.93 1043.15L598.948 1106.58L459.856 726.469L237.79 817.994L19.3532 402.599L-9.16038e-05 87.1786L535.978 80.2889L671.686 342.354L961.006 277.758Z" fill="#43D9AD"/>
</g>
</g>
<defs>
<filter id="filter0_f_2_5" x="300.597" y="122.856" width="1373.4" height="1486.08" filterUnits="userSpaceOnUse" color-interpolation-filters="sRGB">
<feFlood flood-opacity="0" result="BackgroundImageFix"/>
<feBlend mode="normal" in="SourceGraphic" in2="BackgroundImageFix" result="shape"/>
<feGaussianBlur stdDeviation="87" result="effect1_foregroundBlur_2_5"/>
</filter>
<filter id="filter1_f_2_5" x="-174" y="-93.7111" width="1340.78" height="1374.29" filterUnits="userSpaceOnUse" color-interpolation-filters="sRGB">
<feFlood flood-opacity="0" result="BackgroundImageFix"/>
<feBlend mode="normal" in="SourceGraphic" in2="BackgroundImageFix" result="shape"/>
<feGaussianBlur stdDeviation="87" result="effect1_foregroundBlur_2_5"/>
</filter>
<filter id="filter2_f_2_5" x="300.597" y="122.856" width="1373.4" height="1486.08" filterUnits="userSpaceOnUse" color-interpolation-filters="sRGB">
<feFlood flood-opacity="0" result="BackgroundImageFix"/>
<feBlend mode="normal" in="SourceGraphic" in2="BackgroundImageFix" result="shape"/>
<feGaussianBlur stdDeviation="87" result="effect1_foregroundBlur_2_5"/>
</filter>
<filter id="filter3_f_2_5" x="-174" y="-93.7111" width="1340.78" height="1374.29" filterUnits="userSpaceOnUse" color-interpolation-filters="sRGB">
<feFlood flood-opacity="0" result="BackgroundImageFix"/>
<feBlend mode="normal" in="SourceGraphic" in2="BackgroundImageFix" result="shape"/>
<feGaussianBlur stdDeviation="87" result="effect1_foregroundBlur_2_5"/>
</filter>
</defs>
</svg>
